<?xml version="1.0" encoding="utf-8"?>
<!-- Generator: Adobe Illustrator 25.4.1, SVG Export Plug-In . SVG Version: 6.00 Build 0)  -->
<svg version="1.1" id="Layer_1" xmlns="http://www.w3.org/2000/svg" xmlns:xlink="http://www.w3.org/1999/xlink" x="0px" y="0px"
	 viewBox="0 0 19 17.5" style="enable-background:new 0 0 19 17.5;" xml:space="preserve">
<style type="text/css">
	.st0{fill:#FF3366;}
	.st1{fill:#FFFFFF;}
</style>
<rect class="st0" width="19" height="17.5"/>
<path class="st1" d="M10.6,13.7c-0.8,0-1.4-0.6-1.4-1.4c0-0.8,0.6-1.4,1.4-1.4h4.2c0.8,0,1.4,0.6,1.4,1.4c0,0.8-0.6,1.4-1.4,1.4
	H10.6z M5.8,8.8L3.3,6.2c-0.6-0.6-0.6-1.4,0-2s1.4-0.6,2,0l3.5,3.5c0.6,0.6,0.6,1.4,0,2l-3.5,3.5c-0.6,0.6-1.4,0.6-2,0
	c-0.6-0.6-0.6-1.4,0-2L5.8,8.8z"/>
</svg>
