<?xml version="1.0" encoding="utf-8"?>
<!-- Generator: Adobe Illustrator 25.4.1, SVG Export Plug-In . SVG Version: 6.00 Build 0)  -->
<svg version="1.1" id="Layer_1" xmlns="http://www.w3.org/2000/svg" xmlns:xlink="http://www.w3.org/1999/xlink" x="0px" y="0px"
	 viewBox="0 0 25 24.6" style="enable-background:new 0 0 25 24.6;" xml:space="preserve">
<g>
	<path d="M21.5,22.5h-18C3.2,22.5,3,22.3,3,22v-1.8c0-1.4,0.9-2.6,2.2-3.1c1.5-0.6,3.6-2.1,4.5-4.3l0.9,0.4c-1,2.5-3.3,4.1-5,4.8
		c-1,0.4-1.6,1.3-1.6,2.3v1.3H21v-1.3c0-1-0.6-1.9-1.6-2.3c-1.7-0.7-4-2.3-5-4.8l0.9-0.4c0.9,2.2,3,3.7,4.5,4.3
		c1.3,0.5,2.2,1.8,2.2,3.1V22C22,22.3,21.8,22.5,21.5,22.5z"/>
	<path d="M12.5,14.4c-3,0-5.2-3.8-5.2-7.1c0-3.2,2-5.2,5.2-5.2s5.2,2,5.2,5.2C17.7,10.7,15.5,14.4,12.5,14.4z M12.5,3.1
		c-2.1,0-4.3,1.1-4.3,4.3c0,2.8,1.9,6.2,4.3,6.2c2.4,0,4.3-3.4,4.3-6.2C16.8,4.2,14.6,3.1,12.5,3.1z"/>
</g>
</svg>
