<?xml version="1.0" encoding="utf-8"?>
<!-- Generator: Adobe Illustrator 25.4.1, SVG Export Plug-In . SVG Version: 6.00 Build 0)  -->
<svg version="1.1" id="Layer_1" xmlns="http://www.w3.org/2000/svg" xmlns:xlink="http://www.w3.org/1999/xlink" x="0px" y="0px"
	 viewBox="0 0 20 20.2" style="enable-background:new 0 0 20 20.2;" xml:space="preserve">
<style type="text/css">
	.st0{fill:#FF3366;}
</style>
<g>
	<path class="st0" d="M14.9,12l-0.1-0.1c-0.5-0.5-1.7-1.1-3,0.3c-0.2,0.2-0.7,0-0.9-0.1c-0.6-0.3-1.1-0.7-1.6-1.2
		c-0.5-0.5-0.9-1-1.2-1.6C7.9,9,7.6,8.5,7.9,8.3c1.4-1.4,0.8-2.5,0.3-3L8,5.1C7.4,4.4,6.3,3.2,5.1,3.5C4.5,3.6,4,4.2,3.7,5.3
		c-0.8,2.6,0.2,5.2,3,8c2.2,2.2,4.3,3.3,6.3,3.3c0.6,0,1.1-0.1,1.7-0.2c1.1-0.3,1.7-0.8,1.8-1.5C16.8,13.7,15.6,12.6,14.9,12z
		 M14.4,15.4c-2.2,0.7-4.5-0.2-7-2.8S4,7.8,4.6,5.6c0.2-0.7,0.5-1.1,0.7-1.1c0,0,0.1,0,0.1,0c0.6,0,1.4,1,1.8,1.4L7.4,6
		C7.7,6.3,8,6.8,7.1,7.6c-0.3,0.3-0.6,1-0.1,2.1c0.4,0.7,0.8,1.3,1.4,1.9c0.5,0.6,1.2,1,1.9,1.4c1.1,0.5,1.7,0.3,2.1-0.1
		c0.8-0.8,1.3-0.6,1.7-0.2l0.1,0.1c0.4,0.4,1.5,1.3,1.4,1.9C15.5,14.9,15.1,15.2,14.4,15.4L14.4,15.4z M10.3,3.8
		c0.1-0.3,0.3-0.4,0.6-0.4C13.8,4,16,6.2,16.6,9.1c0.1,0.3-0.1,0.5-0.4,0.6c0,0-0.1,0-0.1,0c-0.2,0-0.4-0.2-0.5-0.4
		c-0.5-2.5-2.4-4.4-4.9-4.9C10.4,4.3,10.3,4.1,10.3,3.8z M9.9,5.8c0.1-0.3,0.3-0.4,0.6-0.4c0,0,0,0,0,0c2.1,0.4,3.7,2,4.1,4.1
		c0.1,0.3-0.1,0.5-0.4,0.6c0,0,0,0,0,0c0,0-0.1,0-0.1,0c-0.2,0-0.4-0.2-0.5-0.4c-0.3-1.7-1.7-3-3.3-3.3C10,6.3,9.9,6,9.9,5.8z"/>
</g>
</svg>
