<?xml version="1.0" encoding="utf-8"?>
<!-- Generator: Adobe Illustrator 25.4.1, SVG Export Plug-In . SVG Version: 6.00 Build 0)  -->
<svg version="1.1" id="Layer_1" xmlns="http://www.w3.org/2000/svg" xmlns:xlink="http://www.w3.org/1999/xlink" x="0px" y="0px"
	 viewBox="0 0 70.2 70.7" style="enable-background:new 0 0 70.2 70.7;" xml:space="preserve">
<g>
	<g>
		<path d="M57.1,3.4h-42c-5,0-9,4-9,9v7h-1c-1.7,0-3,1.3-3,3v4c0,1.7,1.3,3,3,3h8c1.7,0,3-1.3,3-3v-4c0-1.7-1.3-3-3-3h-5v-7
			c0-3.9,3.1-7,7-7h42c3.9,0,7,3.1,7,7v46c0,3.9-3.1,7-7,7h-42c-3.9,0-7-3.1-7-7v-5c0-0.6-0.4-1-1-1s-1,0.4-1,1v5c0,5,4,9,9,9h42
			c5,0,9-4,9-9v-46C66.1,7.4,62,3.4,57.1,3.4z M14.1,22.4v4c0,0.6-0.4,1-1,1h-8c-0.6,0-1-0.4-1-1v-4c0-0.6,0.4-1,1-1h8
			C13.6,21.4,14.1,21.8,14.1,22.4z"/>
		<path d="M16.1,48.4v-4c0-1.7-1.3-3-3-3h-5v-10c0-0.6-0.4-1-1-1s-1,0.4-1,1v10h-1c-1.7,0-3,1.3-3,3v4c0,1.7,1.3,3,3,3h8
			C14.7,51.4,16.1,50,16.1,48.4z M4.1,48.4v-4c0-0.6,0.4-1,1-1h8c0.6,0,1,0.4,1,1v4c0,0.6-0.4,1-1,1h-8C4.5,49.4,4.1,48.9,4.1,48.4z
			"/>
		<path d="M22.1,44.4v2c0,2.8,2.2,5,5,5h18c2.8,0,5-2.2,5-5v-2c0-4.8-3.7-8.7-8.4-9c2.1-1.7,3.4-4.2,3.4-7c0-5-4-9-9-9s-9,4-9,9
			c0,2.8,1.3,5.4,3.4,7C25.8,35.7,22.1,39.6,22.1,44.4z M29.1,28.4c0-3.9,3.1-7,7-7s7,3.1,7,7s-3.1,7-7,7S29.1,32.2,29.1,28.4z
			 M31.1,37.4h10c3.9,0,7,3.1,7,7v2c0,1.7-1.3,3-3,3h-18c-1.7,0-3-1.3-3-3v-2C24.1,40.5,27.2,37.4,31.1,37.4z"/>
	</g>
</g>
</svg>
