<?xml version="1.0" encoding="utf-8"?>
<!-- Generator: Adobe Illustrator 25.4.1, SVG Export Plug-In . SVG Version: 6.00 Build 0)  -->
<svg version="1.1" id="Layer_1" xmlns="http://www.w3.org/2000/svg" xmlns:xlink="http://www.w3.org/1999/xlink" x="0px" y="0px"
	 viewBox="0 0 100 102.7" style="enable-background:new 0 0 100 102.7;" xml:space="preserve">
<style type="text/css">
	.st0{fill:#FF3366;}
</style>
<path class="st0" d="M50,6.1L50,6.1c-17.7,0-32,14.3-32,32c0.1,6.1,1.8,12.1,5.1,17.3C29.5,66,46.8,91.5,47.5,92.6
	c0.9,1.4,2.8,1.8,4.2,0.8c0.3-0.2,0.6-0.5,0.8-0.8c0.7-1.1,18-26.6,24.4-37.2c3.3-5.2,5-11.2,5.1-17.3C82,20.4,67.7,6.1,50,6.1
	C50,6.1,50,6.1,50,6.1z M71.8,52.3C66.9,60.4,55.1,77.9,50,85.6c-5.1-7.6-16.9-25.1-21.8-33.2c-2.7-4.3-4.2-9.2-4.2-14.2
	c0-14.4,11.6-26,26-26s26,11.6,26,26C75.9,43.1,74.5,48.1,71.8,52.3z"/>
<path class="st0" d="M50,22c-8.8,0-16,7.2-16,16s7.2,16,16,16s16-7.2,16-16S58.8,22,50,22z M50,48c-5.5,0-10-4.5-10-10s4.5-10,10-10
	s10,4.5,10,10S55.5,48,50,48z"/>
</svg>
