<?xml version="1.0" encoding="utf-8"?>
<!-- Generator: Adobe Illustrator 25.4.1, SVG Export Plug-In . SVG Version: 6.00 Build 0)  -->
<svg version="1.1" id="Layer_1" xmlns="http://www.w3.org/2000/svg" xmlns:xlink="http://www.w3.org/1999/xlink" x="0px" y="0px"
	 viewBox="0 0 774.1 860.5" style="enable-background:new 0 0 774.1 860.5;" xml:space="preserve">
<g>
	<path d="M48.7,10.6h678c11.4,0,20.6,9.2,20.6,20.6v784.1c0,11.4-9.2,20.6-20.6,20.6h-678c-11.4,0-20.6-9.2-20.6-20.6V31.3
		C28.1,19.9,37.3,10.6,48.7,10.6L48.7,10.6z M629.2,51.9v416.9c0,27.1-41.3,27.1-41.3,0V51.9H69.4v742.8h636.7V51.9H629.2z
		 M143.3,526.4c-27.1,0-27.1-41.3,0-41.3h350.5c27.2,0,27.2,41.3,0,41.3H143.3L143.3,526.4z M143.3,699.4c-27.1,0-27.1-41.3,0-41.3
		h350.5c27.2,0,27.2,41.3,0,41.3H143.3L143.3,699.4z M143.3,612.9c-27.1,0-27.1-41.3,0-41.3h350.5c27.2,0,27.2,41.3,0,41.3H143.3
		L143.3,612.9z M318.5,176.7c46.2,0,83.7,37.5,83.7,83.7c0,20.5-7.4,39.2-19.6,53.8c15.8,10.3,29,24.3,38.2,40.7
		c14.2-20.2,22.5-44.9,22.5-71.5c0-68.9-55.9-124.8-124.8-124.8s-124.8,55.9-124.8,124.8c0,26.6,8.3,51.2,22.5,71.5
		c9.3-16.4,22.4-30.4,38.2-40.7c-12.2-14.5-19.6-33.3-19.6-53.8C234.9,214.2,272.3,176.7,318.5,176.7L318.5,176.7z M343.1,340.4
		c-7.8,2.4-16,3.7-24.6,3.7c-8.5,0-16.8-1.3-24.6-3.7c-21.6,7.3-38.9,24.1-46.9,45.3c20.3,14.2,44.9,22.5,71.5,22.5
		c26.6,0,51.3-8.3,71.5-22.5C382,364.5,364.7,347.7,343.1,340.4z M318.5,218c-23.4,0-42.4,19-42.4,42.4c0,23.4,19,42.4,42.4,42.4
		c23.4,0,42.4-19,42.4-42.4C360.9,237,342,218,318.5,218L318.5,218z M318.5,117.3c91.8,0,166.1,74.4,166.1,166.1
		s-74.4,166.1-166.1,166.1c-91.7,0-166.1-74.4-166.1-166.1S226.8,117.3,318.5,117.3z"/>
</g>
</svg>
